<mxfile host="app.diagrams.net" modified="2020-10-07T12:37:35.497Z" agent="5.0 (Macintosh; Intel Mac OS X 10_15_4) AppleWebKit/537.36 (KHTML, like Gecko) Chrome/85.0.4183.121 Safari/537.36" etag="j3IhoCxXX5T_NN4ZEH_w" version="13.7.7" type="github">
  <diagram id="C5RBs43oDa-KdzZeNtuy" name="Page-1">
    <mxGraphModel dx="2013" dy="741" grid="1" gridSize="10" guides="1" tooltips="1" connect="1" arrows="1" fold="1" page="1" pageScale="1" pageWidth="827" pageHeight="1169" math="0" shadow="0">
      <root>
        <mxCell id="WIyWlLk6GJQsqaUBKTNV-0" />
        <mxCell id="WIyWlLk6GJQsqaUBKTNV-1" parent="WIyWlLk6GJQsqaUBKTNV-0" />
        <mxCell id="WIyWlLk6GJQsqaUBKTNV-2" value="" style="rounded=0;html=1;jettySize=auto;orthogonalLoop=1;fontSize=11;endArrow=block;endFill=0;endSize=8;strokeWidth=2;shadow=0;labelBackgroundColor=none;edgeStyle=orthogonalEdgeStyle;strokeColor=#6495ED;" parent="WIyWlLk6GJQsqaUBKTNV-1" source="WIyWlLk6GJQsqaUBKTNV-3" target="WIyWlLk6GJQsqaUBKTNV-6" edge="1">
          <mxGeometry relative="1" as="geometry" />
        </mxCell>
        <mxCell id="S-r1_c-27VpIuPjR4QZz-1" value="" style="edgeStyle=orthogonalEdgeStyle;rounded=0;orthogonalLoop=1;jettySize=auto;html=1;strokeColor=#6495ED;strokeWidth=2;" edge="1" parent="WIyWlLk6GJQsqaUBKTNV-1" source="WIyWlLk6GJQsqaUBKTNV-3" target="S-r1_c-27VpIuPjR4QZz-0">
          <mxGeometry relative="1" as="geometry" />
        </mxCell>
        <mxCell id="S-r1_c-27VpIuPjR4QZz-3" value="" style="edgeStyle=orthogonalEdgeStyle;rounded=0;orthogonalLoop=1;jettySize=auto;html=1;strokeColor=#6495ED;strokeWidth=2;" edge="1" parent="WIyWlLk6GJQsqaUBKTNV-1" source="WIyWlLk6GJQsqaUBKTNV-3" target="S-r1_c-27VpIuPjR4QZz-2">
          <mxGeometry relative="1" as="geometry" />
        </mxCell>
        <mxCell id="WIyWlLk6GJQsqaUBKTNV-3" value="&lt;font style=&quot;font-size: 14px&quot;&gt;beginWork(current, workInProgress)&lt;/font&gt;" style="rounded=1;whiteSpace=wrap;html=1;fontSize=12;glass=0;strokeWidth=2;shadow=0;strokeColor=#6495ED;" parent="WIyWlLk6GJQsqaUBKTNV-1" vertex="1">
          <mxGeometry x="226" y="90" width="216" height="40" as="geometry" />
        </mxCell>
        <mxCell id="WIyWlLk6GJQsqaUBKTNV-5" value="&lt;font style=&quot;font-size: 14px&quot;&gt;mount&lt;/font&gt;" style="edgeStyle=orthogonalEdgeStyle;rounded=0;html=1;jettySize=auto;orthogonalLoop=1;fontSize=11;endArrow=block;endFill=0;endSize=8;strokeWidth=2;shadow=0;labelBackgroundColor=none;strokeColor=#6495ED;" parent="WIyWlLk6GJQsqaUBKTNV-1" source="WIyWlLk6GJQsqaUBKTNV-6" edge="1">
          <mxGeometry x="-0.5646" y="10" relative="1" as="geometry">
            <mxPoint as="offset" />
            <mxPoint x="529" y="580" as="targetPoint" />
            <Array as="points">
              <mxPoint x="529" y="360" />
            </Array>
          </mxGeometry>
        </mxCell>
        <mxCell id="WIyWlLk6GJQsqaUBKTNV-6" value="&lt;font style=&quot;font-size: 14px&quot;&gt;update/mount&lt;/font&gt;" style="rhombus;whiteSpace=wrap;html=1;shadow=0;fontFamily=Helvetica;fontSize=12;align=center;strokeWidth=2;spacing=6;spacingTop=-4;strokeColor=#6495ED;" parent="WIyWlLk6GJQsqaUBKTNV-1" vertex="1">
          <mxGeometry x="284" y="320" width="100" height="80" as="geometry" />
        </mxCell>
        <mxCell id="WIyWlLk6GJQsqaUBKTNV-10" value="是否可以复用？" style="rhombus;whiteSpace=wrap;html=1;shadow=0;fontFamily=Helvetica;fontSize=12;align=center;strokeWidth=2;spacing=6;spacingTop=-4;strokeColor=#6495ED;" parent="WIyWlLk6GJQsqaUBKTNV-1" vertex="1">
          <mxGeometry x="10" y="410" width="100" height="80" as="geometry" />
        </mxCell>
        <mxCell id="S-r1_c-27VpIuPjR4QZz-19" value="" style="edgeStyle=orthogonalEdgeStyle;rounded=0;orthogonalLoop=1;jettySize=auto;html=1;strokeColor=#6495ED;strokeWidth=2;" edge="1" parent="WIyWlLk6GJQsqaUBKTNV-1" source="WIyWlLk6GJQsqaUBKTNV-11" target="S-r1_c-27VpIuPjR4QZz-18">
          <mxGeometry relative="1" as="geometry" />
        </mxCell>
        <mxCell id="WIyWlLk6GJQsqaUBKTNV-11" value="bailoutOnAlreadyFinishedWork(wurrent, workInProgress)" style="rounded=1;whiteSpace=wrap;html=1;fontSize=12;glass=0;strokeWidth=2;shadow=0;strokeColor=#6495ED;" parent="WIyWlLk6GJQsqaUBKTNV-1" vertex="1">
          <mxGeometry x="-235" y="580" width="310" height="40" as="geometry" />
        </mxCell>
        <mxCell id="S-r1_c-27VpIuPjR4QZz-0" value="&lt;font style=&quot;font-size: 14px&quot;&gt;renderLanes代表优先级，此处暂不使用&lt;/font&gt;" style="shape=note;whiteSpace=wrap;html=1;backgroundOutline=1;darkOpacity=0.05;rounded=1;shadow=0;strokeColor=#6495ED;strokeWidth=2;glass=0;" vertex="1" parent="WIyWlLk6GJQsqaUBKTNV-1">
          <mxGeometry x="590" y="60" width="130" height="100" as="geometry" />
        </mxCell>
        <mxCell id="S-r1_c-27VpIuPjR4QZz-2" value="&lt;font style=&quot;font-size: 14px&quot;&gt;&lt;b&gt;current：&lt;/b&gt;当前组件对应的Fiber节点上一更新时的Fiber节点（workInProgress.alternate）&lt;br&gt;&lt;/font&gt;&lt;div style=&quot;text-align: left ; font-size: 14px&quot;&gt;&lt;font style=&quot;font-size: 14px&quot;&gt;&lt;b&gt;workInProgress：&lt;/b&gt;当前组件对应的Fiber节点&lt;/font&gt;&lt;/div&gt;" style="shape=note;whiteSpace=wrap;html=1;backgroundOutline=1;darkOpacity=0.05;rounded=1;shadow=0;strokeColor=#6495ED;strokeWidth=2;glass=0;" vertex="1" parent="WIyWlLk6GJQsqaUBKTNV-1">
          <mxGeometry x="-230" y="60" width="300" height="100" as="geometry" />
        </mxCell>
        <mxCell id="S-r1_c-27VpIuPjR4QZz-5" value="&lt;font style=&quot;font-size: 14px&quot;&gt;可以&lt;/font&gt;" style="rounded=0;html=1;jettySize=auto;orthogonalLoop=1;fontSize=11;endArrow=block;endFill=0;endSize=8;strokeWidth=2;shadow=0;labelBackgroundColor=none;edgeStyle=orthogonalEdgeStyle;strokeColor=#6495ED;" edge="1" parent="WIyWlLk6GJQsqaUBKTNV-1">
          <mxGeometry x="0.3333" y="20" relative="1" as="geometry">
            <mxPoint as="offset" />
            <mxPoint x="10" y="450" as="sourcePoint" />
            <mxPoint x="-90" y="580" as="targetPoint" />
          </mxGeometry>
        </mxCell>
        <mxCell id="S-r1_c-27VpIuPjR4QZz-6" value="" style="rounded=0;html=1;jettySize=auto;orthogonalLoop=1;fontSize=11;endArrow=block;endFill=0;endSize=8;strokeWidth=2;shadow=0;labelBackgroundColor=none;edgeStyle=orthogonalEdgeStyle;strokeColor=#6495ED;entryX=0.5;entryY=0;entryDx=0;entryDy=0;" edge="1" parent="WIyWlLk6GJQsqaUBKTNV-1" target="WIyWlLk6GJQsqaUBKTNV-10">
          <mxGeometry x="0.3333" y="20" relative="1" as="geometry">
            <mxPoint as="offset" />
            <mxPoint x="280" y="360" as="sourcePoint" />
            <mxPoint x="-80" y="680" as="targetPoint" />
            <Array as="points">
              <mxPoint x="60" y="360" />
            </Array>
          </mxGeometry>
        </mxCell>
        <mxCell id="S-r1_c-27VpIuPjR4QZz-7" value="&lt;font style=&quot;font-size: 14px&quot;&gt;Update&lt;/font&gt;" style="text;html=1;strokeColor=none;fillColor=none;align=center;verticalAlign=middle;whiteSpace=wrap;rounded=0;" vertex="1" parent="WIyWlLk6GJQsqaUBKTNV-1">
          <mxGeometry x="160" y="340" width="40" height="20" as="geometry" />
        </mxCell>
        <mxCell id="S-r1_c-27VpIuPjR4QZz-10" value="" style="endArrow=classic;html=1;strokeColor=#6495ED;strokeWidth=2;exitX=0.69;exitY=0.188;exitDx=0;exitDy=0;exitPerimeter=0;" edge="1" parent="WIyWlLk6GJQsqaUBKTNV-1" source="WIyWlLk6GJQsqaUBKTNV-6" target="S-r1_c-27VpIuPjR4QZz-11">
          <mxGeometry width="50" height="50" relative="1" as="geometry">
            <mxPoint x="350" y="500" as="sourcePoint" />
            <mxPoint x="400" y="450" as="targetPoint" />
          </mxGeometry>
        </mxCell>
        <mxCell id="S-r1_c-27VpIuPjR4QZz-11" value="根据current=== null判断当前是update还是mount" style="shape=note;whiteSpace=wrap;html=1;backgroundOutline=1;darkOpacity=0.05;strokeColor=#6495ED;strokeWidth=2;" vertex="1" parent="WIyWlLk6GJQsqaUBKTNV-1">
          <mxGeometry x="590" y="170" width="140" height="100" as="geometry" />
        </mxCell>
        <mxCell id="S-r1_c-27VpIuPjR4QZz-12" value="" style="endArrow=classic;html=1;strokeColor=#6495ED;strokeWidth=2;exitX=0;exitY=0;exitDx=0;exitDy=0;entryX=1;entryY=0.5;entryDx=0;entryDy=0;entryPerimeter=0;" edge="1" parent="WIyWlLk6GJQsqaUBKTNV-1" source="WIyWlLk6GJQsqaUBKTNV-10" target="S-r1_c-27VpIuPjR4QZz-13">
          <mxGeometry width="50" height="50" relative="1" as="geometry">
            <mxPoint x="350" y="460" as="sourcePoint" />
            <mxPoint y="240" as="targetPoint" />
          </mxGeometry>
        </mxCell>
        <mxCell id="S-r1_c-27VpIuPjR4QZz-13" value="根据olrProps和newProps以及type进行判断" style="shape=card;whiteSpace=wrap;html=1;strokeColor=#6495ED;strokeWidth=2;" vertex="1" parent="WIyWlLk6GJQsqaUBKTNV-1">
          <mxGeometry x="-230" y="230" width="170" height="100" as="geometry" />
        </mxCell>
        <mxCell id="S-r1_c-27VpIuPjR4QZz-14" value="&lt;font style=&quot;font-size: 14px&quot;&gt;可以&lt;/font&gt;" style="rounded=0;html=1;jettySize=auto;orthogonalLoop=1;fontSize=11;endArrow=block;endFill=0;endSize=8;strokeWidth=2;shadow=0;labelBackgroundColor=none;edgeStyle=orthogonalEdgeStyle;strokeColor=#6495ED;exitX=1;exitY=0.5;exitDx=0;exitDy=0;" edge="1" parent="WIyWlLk6GJQsqaUBKTNV-1" source="WIyWlLk6GJQsqaUBKTNV-10">
          <mxGeometry x="0.3333" y="20" relative="1" as="geometry">
            <mxPoint as="offset" />
            <mxPoint x="20" y="460" as="sourcePoint" />
            <mxPoint x="300" y="580" as="targetPoint" />
            <Array as="points">
              <mxPoint x="300" y="450" />
              <mxPoint x="300" y="580" />
            </Array>
          </mxGeometry>
        </mxCell>
        <mxCell id="S-r1_c-27VpIuPjR4QZz-17" value="" style="edgeStyle=orthogonalEdgeStyle;rounded=0;orthogonalLoop=1;jettySize=auto;html=1;strokeColor=#6495ED;strokeWidth=2;" edge="1" parent="WIyWlLk6GJQsqaUBKTNV-1" source="S-r1_c-27VpIuPjR4QZz-15" target="S-r1_c-27VpIuPjR4QZz-16">
          <mxGeometry relative="1" as="geometry" />
        </mxCell>
        <mxCell id="S-r1_c-27VpIuPjR4QZz-15" value="根据workInProgress.tag进行区分" style="rounded=1;whiteSpace=wrap;html=1;fontSize=12;glass=0;strokeWidth=2;shadow=0;strokeColor=#6495ED;" vertex="1" parent="WIyWlLk6GJQsqaUBKTNV-1">
          <mxGeometry x="277" y="580" width="273" height="40" as="geometry" />
        </mxCell>
        <mxCell id="S-r1_c-27VpIuPjR4QZz-16" value="FunctionComponent&lt;br&gt;ClassComponent&lt;br&gt;HostComponent&lt;br&gt;..." style="shape=document;whiteSpace=wrap;html=1;boundedLbl=1;rounded=1;shadow=0;strokeColor=#6495ED;strokeWidth=2;glass=0;" vertex="1" parent="WIyWlLk6GJQsqaUBKTNV-1">
          <mxGeometry x="706.5" y="560" width="120" height="80" as="geometry" />
        </mxCell>
        <mxCell id="S-r1_c-27VpIuPjR4QZz-28" value="" style="edgeStyle=orthogonalEdgeStyle;rounded=0;orthogonalLoop=1;jettySize=auto;html=1;strokeColor=#6495ED;strokeWidth=2;" edge="1" parent="WIyWlLk6GJQsqaUBKTNV-1" source="S-r1_c-27VpIuPjR4QZz-18" target="S-r1_c-27VpIuPjR4QZz-27">
          <mxGeometry relative="1" as="geometry">
            <Array as="points">
              <mxPoint x="-240" y="720" />
            </Array>
          </mxGeometry>
        </mxCell>
        <mxCell id="S-r1_c-27VpIuPjR4QZz-30" value="" style="edgeStyle=orthogonalEdgeStyle;rounded=0;orthogonalLoop=1;jettySize=auto;html=1;strokeColor=#6495ED;strokeWidth=2;" edge="1" parent="WIyWlLk6GJQsqaUBKTNV-1" source="S-r1_c-27VpIuPjR4QZz-18" target="S-r1_c-27VpIuPjR4QZz-29">
          <mxGeometry relative="1" as="geometry">
            <Array as="points">
              <mxPoint x="100" y="720" />
            </Array>
          </mxGeometry>
        </mxCell>
        <mxCell id="S-r1_c-27VpIuPjR4QZz-18" value="判断子树是否需要更新" style="rhombus;whiteSpace=wrap;html=1;rounded=1;shadow=0;strokeColor=#6495ED;strokeWidth=2;glass=0;" vertex="1" parent="WIyWlLk6GJQsqaUBKTNV-1">
          <mxGeometry x="-160" y="680" width="160" height="80" as="geometry" />
        </mxCell>
        <mxCell id="S-r1_c-27VpIuPjR4QZz-21" value="" style="endArrow=classic;html=1;strokeColor=#6495ED;strokeWidth=2;" edge="1" parent="WIyWlLk6GJQsqaUBKTNV-1">
          <mxGeometry width="50" height="50" relative="1" as="geometry">
            <mxPoint x="300" y="620" as="sourcePoint" />
            <mxPoint x="300" y="710" as="targetPoint" />
          </mxGeometry>
        </mxCell>
        <mxCell id="S-r1_c-27VpIuPjR4QZz-22" value="" style="endArrow=classic;html=1;strokeColor=#6495ED;strokeWidth=2;exitX=0.908;exitY=1.025;exitDx=0;exitDy=0;exitPerimeter=0;" edge="1" parent="WIyWlLk6GJQsqaUBKTNV-1" source="S-r1_c-27VpIuPjR4QZz-15">
          <mxGeometry width="50" height="50" relative="1" as="geometry">
            <mxPoint x="310" y="630" as="sourcePoint" />
            <mxPoint x="525" y="710" as="targetPoint" />
          </mxGeometry>
        </mxCell>
        <mxCell id="S-r1_c-27VpIuPjR4QZz-23" value="Update" style="text;html=1;strokeColor=none;fillColor=none;align=center;verticalAlign=middle;whiteSpace=wrap;rounded=0;" vertex="1" parent="WIyWlLk6GJQsqaUBKTNV-1">
          <mxGeometry x="300" y="650" width="50" height="20" as="geometry" />
        </mxCell>
        <mxCell id="S-r1_c-27VpIuPjR4QZz-24" value="Mount" style="text;html=1;strokeColor=none;fillColor=none;align=center;verticalAlign=middle;whiteSpace=wrap;rounded=0;" vertex="1" parent="WIyWlLk6GJQsqaUBKTNV-1">
          <mxGeometry x="530" y="650" width="40" height="20" as="geometry" />
        </mxCell>
        <mxCell id="S-r1_c-27VpIuPjR4QZz-39" value="" style="edgeStyle=orthogonalEdgeStyle;rounded=0;orthogonalLoop=1;jettySize=auto;html=1;strokeColor=#6495ED;strokeWidth=2;" edge="1" parent="WIyWlLk6GJQsqaUBKTNV-1" source="S-r1_c-27VpIuPjR4QZz-25" target="S-r1_c-27VpIuPjR4QZz-38">
          <mxGeometry relative="1" as="geometry" />
        </mxCell>
        <mxCell id="S-r1_c-27VpIuPjR4QZz-25" value="&lt;div style=&quot;background-color: rgb(255 , 255 , 254) ; line-height: 26px&quot;&gt;&lt;div&gt;mountChildFibers(workInProgress,&lt;/div&gt;&lt;div style=&quot;text-align: left&quot;&gt;&lt;span style=&quot;color: rgb(183 , 121 , 31)&quot;&gt;null&lt;/span&gt;,nextChildren,renderLanes,)&lt;/div&gt;&lt;/div&gt;" style="rounded=1;whiteSpace=wrap;html=1;strokeColor=#6495ED;strokeWidth=2;" vertex="1" parent="WIyWlLk6GJQsqaUBKTNV-1">
          <mxGeometry x="430" y="710" width="204" height="60" as="geometry" />
        </mxCell>
        <mxCell id="S-r1_c-27VpIuPjR4QZz-36" value="" style="edgeStyle=orthogonalEdgeStyle;rounded=0;orthogonalLoop=1;jettySize=auto;html=1;strokeColor=#6495ED;strokeWidth=2;" edge="1" parent="WIyWlLk6GJQsqaUBKTNV-1" source="S-r1_c-27VpIuPjR4QZz-26" target="S-r1_c-27VpIuPjR4QZz-35">
          <mxGeometry relative="1" as="geometry" />
        </mxCell>
        <mxCell id="S-r1_c-27VpIuPjR4QZz-26" value="&lt;div style=&quot;background-color: rgb(255 , 255 , 254) ; font-family: &amp;#34;pingfang sc&amp;#34; , , &amp;#34;sf ui text&amp;#34; , &amp;#34;lucida grande&amp;#34; , &amp;#34;stheiti&amp;#34; , &amp;#34;microsoft yahei&amp;#34; , sans-serif ; line-height: 26px&quot;&gt;&lt;div&gt;reconcileChildFibers(workInProgress,&lt;/div&gt;&lt;div&gt;current.child,nextChildren,renderLanes,)&lt;/div&gt;&lt;/div&gt;" style="rounded=1;whiteSpace=wrap;html=1;strokeColor=#6495ED;strokeWidth=2;" vertex="1" parent="WIyWlLk6GJQsqaUBKTNV-1">
          <mxGeometry x="184" y="710" width="230" height="60" as="geometry" />
        </mxCell>
        <mxCell id="S-r1_c-27VpIuPjR4QZz-34" value="" style="edgeStyle=orthogonalEdgeStyle;rounded=0;orthogonalLoop=1;jettySize=auto;html=1;strokeColor=#6495ED;strokeWidth=2;" edge="1" parent="WIyWlLk6GJQsqaUBKTNV-1" source="S-r1_c-27VpIuPjR4QZz-27" target="S-r1_c-27VpIuPjR4QZz-33">
          <mxGeometry relative="1" as="geometry" />
        </mxCell>
        <mxCell id="S-r1_c-27VpIuPjR4QZz-27" value="cloneChildFibers(current, workInProgress)" style="whiteSpace=wrap;html=1;rounded=1;shadow=0;strokeColor=#6495ED;strokeWidth=2;glass=0;" vertex="1" parent="WIyWlLk6GJQsqaUBKTNV-1">
          <mxGeometry x="-330" y="790" width="180" height="40" as="geometry" />
        </mxCell>
        <mxCell id="S-r1_c-27VpIuPjR4QZz-29" value="return null" style="whiteSpace=wrap;html=1;rounded=1;shadow=0;strokeColor=#6495ED;strokeWidth=2;glass=0;" vertex="1" parent="WIyWlLk6GJQsqaUBKTNV-1">
          <mxGeometry x="40" y="1010" width="120" height="40" as="geometry" />
        </mxCell>
        <mxCell id="S-r1_c-27VpIuPjR4QZz-31" value="需要" style="text;html=1;align=center;verticalAlign=middle;resizable=0;points=[];autosize=1;" vertex="1" parent="WIyWlLk6GJQsqaUBKTNV-1">
          <mxGeometry x="-235" y="700" width="40" height="20" as="geometry" />
        </mxCell>
        <mxCell id="S-r1_c-27VpIuPjR4QZz-32" value="不需要" style="text;html=1;align=center;verticalAlign=middle;resizable=0;points=[];autosize=1;" vertex="1" parent="WIyWlLk6GJQsqaUBKTNV-1">
          <mxGeometry x="25" y="700" width="50" height="20" as="geometry" />
        </mxCell>
        <mxCell id="S-r1_c-27VpIuPjR4QZz-33" value="return workInProgress.child" style="whiteSpace=wrap;html=1;rounded=1;shadow=0;strokeColor=#6495ED;strokeWidth=2;glass=0;" vertex="1" parent="WIyWlLk6GJQsqaUBKTNV-1">
          <mxGeometry x="-335" y="1010" width="190" height="40" as="geometry" />
        </mxCell>
        <mxCell id="S-r1_c-27VpIuPjR4QZz-35" value="生成新的Fiber子节点&lt;br&gt;设置flags=Deletion" style="whiteSpace=wrap;html=1;rounded=1;strokeColor=#6495ED;strokeWidth=2;" vertex="1" parent="WIyWlLk6GJQsqaUBKTNV-1">
          <mxGeometry x="208.5" y="1010" width="181" height="40" as="geometry" />
        </mxCell>
        <mxCell id="S-r1_c-27VpIuPjR4QZz-37" value="Diff算法" style="text;html=1;align=center;verticalAlign=middle;resizable=0;points=[];autosize=1;" vertex="1" parent="WIyWlLk6GJQsqaUBKTNV-1">
          <mxGeometry x="300" y="870" width="60" height="20" as="geometry" />
        </mxCell>
        <mxCell id="S-r1_c-27VpIuPjR4QZz-38" value="&lt;div style=&quot;background-color: rgb(255 , 255 , 254) ; line-height: 26px&quot;&gt;&lt;div&gt;生成新的Fiber子节点&lt;/div&gt;&lt;/div&gt;" style="rounded=1;whiteSpace=wrap;html=1;strokeColor=#6495ED;strokeWidth=2;" vertex="1" parent="WIyWlLk6GJQsqaUBKTNV-1">
          <mxGeometry x="460" y="1010" width="144" height="40" as="geometry" />
        </mxCell>
      </root>
    </mxGraphModel>
  </diagram>
</mxfile>
